<svg width="61" height="46" viewBox="0 0 61 46" fill="none" xmlns="http://www.w3.org/2000/svg">
<path d="M57.124 44.893H16.92C15.263 44.893 13.92 43.55 13.92 41.893C13.92 40.236 15.263 38.893 16.92 38.893H57.123C58.78 38.893 60.123 40.236 60.123 41.893C60.123 43.55 58.781 44.893 57.124 44.893Z" fill="#FC5C50"/>
<path d="M57.124 26.062H16.92C15.263 26.062 13.92 24.719 13.92 23.062C13.92 21.405 15.263 20.062 16.92 20.062H57.123C58.78 20.062 60.123 21.405 60.123 23.062C60.124 24.719 58.781 26.062 57.124 26.062Z" fill="#FC5C50"/>
<path d="M57.124 7.23099H16.92C15.263 7.23099 13.92 5.88799 13.92 4.23099C13.92 2.57399 15.263 1.23099 16.92 1.23099H57.123C58.78 1.23099 60.123 2.57399 60.123 4.23099C60.123 5.88799 58.781 7.23099 57.124 7.23099Z" fill="#FC5C50"/>
<path d="M4.029 8.49199C6.25416 8.49199 8.058 6.68815 8.058 4.46299C8.058 2.23784 6.25416 0.43399 4.029 0.43399C1.80384 0.43399 0 2.23784 0 4.46299C0 6.68815 1.80384 8.49199 4.029 8.49199Z" fill="#FC5C50"/>
<path d="M4.029 27.091C6.25416 27.091 8.058 25.2871 8.058 23.062C8.058 20.8368 6.25416 19.033 4.029 19.033C1.80384 19.033 0 20.8368 0 23.062C0 25.2871 1.80384 27.091 4.029 27.091Z" fill="#FC5C50"/>
<path d="M4.029 45.69C6.25416 45.69 8.058 43.8861 8.058 41.661C8.058 39.4358 6.25416 37.632 4.029 37.632C1.80384 37.632 0 39.4358 0 41.661C0 43.8861 1.80384 45.69 4.029 45.69Z" fill="#FC5C50"/>
</svg>
